<svg xmlns="http://www.w3.org/2000/svg" viewBox="0 0 24 24">
    <polygon
        fill="#ffffff"
            points="8.259 15.222 7.3 18.801 5.368 18.284 5.826 16.574 3.486 17.874 2.514 16.126 4.603 14.965 3.241 14.6 3.759 12.668 7.118 13.568 9.94 12 7.118 10.432 3.76 11.332 3.242 9.4 4.604 9.035 2.514 7.874 3.486 6.126 5.827 7.427 5.369 5.716 7.301 5.199 8.26 8.778 11 10.301 11 7.071 8.459 4.53 9.873 3.116 11 4.242 11 2 13 2 13 4.243 14.128 3.115 15.542 4.53 13 7.071 13 10.301 15.741 8.778 16.7 5.199 18.632 5.716 18.174 7.426 20.514 6.126 21.486 7.874 19.397 9.035 20.759 9.4 20.241 11.332 16.882 10.432 14.059 12 16.884 13.57 20.241 12.669 20.759 14.601 19.398 14.966 21.486 16.126 20.514 17.874 18.173 16.574 18.632 18.286 16.7 18.803 15.741 15.222 13 13.7 13 16.929 15.541 19.47 14.127 20.884 13 19.757 13 22 11 22 11 19.757 9.872 20.884 8.458 19.47 11 16.929 11 13.699">
    </polygon>
</svg>