<svg width="30" height="26" viewBox="0 0 30 26" fill="none" xmlns="http://www.w3.org/2000/svg">
<path d="M29.0645 19.0699L18.8379 2.10992C18.4243 1.46301 17.8546 0.930619 17.1812 0.561838C16.5077 0.193057 15.7523 -0.000244141 14.9845 -0.000244141C14.2167 -0.000244141 13.4613 0.193057 12.7879 0.561838C12.1145 0.930619 11.5447 1.46301 11.1312 2.10992L0.904529 19.0699C0.543267 19.6721 0.346914 20.3588 0.335211 21.061C0.323509 21.7631 0.496869 22.456 0.837862 23.0699C1.2321 23.7609 1.80274 24.3349 2.49146 24.7331C3.18019 25.1314 3.9623 25.3396 4.75786 25.3366H25.2112C26.0015 25.345 26.7801 25.1448 27.4684 24.7562C28.1566 24.3676 28.7302 23.8044 29.1312 23.1233C29.4822 22.503 29.6611 21.8001 29.6494 21.0875C29.6377 20.3749 29.4357 19.6783 29.0645 19.0699V19.0699ZM14.9845 20.0033C14.7208 20.0033 14.463 19.9251 14.2438 19.7785C14.0245 19.632 13.8536 19.4238 13.7527 19.1802C13.6518 18.9365 13.6254 18.6684 13.6768 18.4098C13.7283 18.1512 13.8553 17.9136 14.0417 17.7271C14.2282 17.5406 14.4658 17.4137 14.7244 17.3622C14.9831 17.3108 15.2511 17.3372 15.4948 17.4381C15.7384 17.539 15.9466 17.7099 16.0932 17.9292C16.2397 18.1484 16.3179 18.4062 16.3179 18.6699C16.3179 19.0235 16.1774 19.3627 15.9273 19.6127C15.6773 19.8628 15.3382 20.0033 14.9845 20.0033ZM16.3179 14.6699C16.3179 15.0235 16.1774 15.3627 15.9273 15.6127C15.6773 15.8628 15.3382 16.0033 14.9845 16.0033C14.6309 16.0033 14.2918 15.8628 14.0417 15.6127C13.7917 15.3627 13.6512 15.0235 13.6512 14.6699V9.33659C13.6512 8.98297 13.7917 8.64383 14.0417 8.39378C14.2918 8.14373 14.6309 8.00325 14.9845 8.00325C15.3382 8.00325 15.6773 8.14373 15.9273 8.39378C16.1774 8.64383 16.3179 8.98297 16.3179 9.33659V14.6699Z" fill="black"/>
</svg>
