<svg version="1.2" baseProfile="tiny-ps" xmlns="http://www.w3.org/2000/svg" viewBox="0 0 24 27" width="24" height="27">
	<title>candado</title>
	<style>
		tspan { white-space:pre }
		.shp0 { fill: #ffffff } 
	</style>
	<path fill-rule="evenodd" class="shp0" d="M11.75 0.04C12.44 0.02 14.18 0.56 15.62 1.25C17.06 1.94 18.86 3.74 19.62 5.25C20.38 6.76 21 9.12 21 10.5C21 11.87 21.45 13 22 13C22.59 13 22.9 15.75 22.5 26.5L1.5 26.5L1.25 19.75C1.1 15.75 1.41 13 2 13C2.55 13 3.02 11.76 3.04 10.25C3.05 8.74 3.77 6.42 4.63 5.11C5.48 3.8 7.15 2.12 8.34 1.4C9.53 0.67 11.06 0.05 11.75 0.04ZM8.5 5.57C7.6 6.44 6.89 8.46 6.93 10.07C7 12.91 7.15 13 12 13C16.89 13 17 12.93 17 10C17 8.35 16.32 6.32 15.5 5.5C14.67 4.67 13.13 4 12.07 4C11.01 4 9.4 4.71 8.5 5.57Z" />
</svg>