<svg width="122" height="122" viewBox="0 0 122 122" fill="none" xmlns="http://www.w3.org/2000/svg">
<path d="M22.2765 0C9.93629 0 0 9.93627 0 22.2764V99.7235C0 112.064 9.93629 122 22.2765 122H64.2522V74.3055H51.6404V57.1341H64.2522V42.4636C64.2522 30.9377 71.7038 20.3549 88.8694 20.3549C95.8195 20.3549 100.959 21.0221 100.959 21.0221L100.555 37.0575C100.555 37.0575 95.3132 37.008 89.5938 37.008C83.4036 37.008 82.411 39.8601 82.411 44.5949V57.1342H101.047L100.234 74.3057H82.411V122H99.7235C112.064 122 122 112.064 122 99.7236V22.2765C122 9.93639 112.064 0.000122 99.7235 0.000122H22.2763L22.2765 0Z" fill="#37bcf9"/>
</svg>
