<svg width="20" height="20" viewBox="0 0 20 20" fill="none" xmlns="http://www.w3.org/2000/svg">
<path d="M10 16.875C13.797 16.875 16.875 13.797 16.875 10C16.875 6.20304 13.797 3.125 10 3.125C6.20304 3.125 3.125 6.20304 3.125 10C3.125 13.797 6.20304 16.875 10 16.875Z" fill="#4DD0E1"/>
<path d="M10 2.5C5.86437 2.5 2.5 5.86437 2.5 10C2.5 14.1356 5.86437 17.5 10 17.5C14.1356 17.5 17.5 14.1356 17.5 10C17.5 5.86437 14.1356 2.5 10 2.5ZM10 16.25C6.55375 16.25 3.75 13.4462 3.75 10C3.75 6.55375 6.55375 3.75 10 3.75C13.4462 3.75 16.25 6.55375 16.25 10C16.25 13.4462 13.4462 16.25 10 16.25Z" fill="#012E52"/>
<path d="M12.3323 7.72499L9.64543 10.949L8.25418 9.55811C8.01043 9.31405 7.61417 9.31405 7.37042 9.55811C7.12636 9.80217 7.12636 10.1978 7.37042 10.4419L9.24543 12.3169C9.36324 12.4344 9.5223 12.5 9.68761 12.5C9.69699 12.5 9.70668 12.5 9.71605 12.4994C9.89136 12.4915 10.0554 12.41 10.1679 12.275L13.2929 8.52499C13.5139 8.25967 13.4779 7.86592 13.2129 7.64467C12.9476 7.42405 12.5532 7.45967 12.3323 7.72499V7.72499Z" fill="#012E52"/>
</svg>
