<svg id="Layer" enable-background="new 0 0 64 64" height="512" viewBox="0 0 64 64" width="512" xmlns="http://www.w3.org/2000/svg"><circle cx="32" cy="32" fill="#4dd0e1" r="22"/><g fill="#012e52"><path d="m32 8c-13.234 0-24 10.766-24 24s10.766 24 24 24 24-10.766 24-24-10.766-24-24-24zm0 44c-11.028 0-20-8.972-20-20s8.972-20 20-20 20 8.972 20 20-8.972 20-20 20z"/><path d="m39.463 24.72-8.598 10.317-4.452-4.451c-.78-.781-2.048-.781-2.828 0-.781.781-.781 2.047 0 2.828l6 6c.377.376.886.586 1.415.586.03 0 .061 0 .091-.002.561-.025 1.086-.286 1.446-.718l10-12c.707-.849.592-2.109-.256-2.817-.849-.706-2.111-.592-2.818.257z"/></g></svg>