<svg xmlns="http://www.w3.org/2000/svg" width="20" height="20" fill="none" viewBox="0 0 20 20"><g clip-path="url(#clip0)"><path fill="#000" d="M17.585 9.7539L13.9838 9.21413C13.395 9.12588 12.8147 9.4195 12.5371 9.94618L12.1595 10.6626C12.923 10.4711 13.634 10.3465 14.2638 10.3465C15.7224 10.3465 16.703 11.0332 16.9254 12.4875L17.1697 12.5241C17.9349 12.6388 18.6478 12.1116 18.7624 11.3466C18.8771 10.5817 18.3499 9.86859 17.585 9.7539Z"/><path fill="#000" d="M6.84038 6.65212C6.61897 6.7698 6.4257 6.91947 6.26202 7.09177C6.70115 8.04601 7.06525 9.325 7.35835 10.3397C7.48254 10.7697 7.7811 11.1376 8.17749 11.349C8.41879 11.4777 8.69082 11.5457 8.9642 11.5457C9.13676 11.5457 9.30758 11.5191 9.47195 11.4666C10.2176 11.2283 10.9313 10.9985 11.6102 10.8087L10.32 8.38116L13.28 6.17988C13.9007 5.7183 14.0297 4.8409 13.5681 4.2202C13.1066 3.5995 12.2291 3.47055 11.6084 3.93213L8.26635 6.4175C7.79475 6.34004 7.29498 6.41047 6.84038 6.65212Z"/><path fill="#000" d="M14.2638 11.3842C13.1018 11.3842 11.4589 11.9213 9.78771 12.4551C9.51889 12.541 9.24109 12.5835 8.9642 12.5835C8.52364 12.5835 8.08533 12.476 7.68916 12.2646C7.04397 11.9205 6.56427 11.3302 6.36137 10.6277C5.68857 8.29824 4.98252 5.85657 3.73652 6.16753C1.6967 6.67662 0.695339 9.70267 1.49991 12.9265C1.92456 14.628 2.76745 16.0442 3.76868 16.9277C3.87418 17.0391 3.98892 17.1448 4.11137 17.2452C4.07236 17.5289 3.82906 19.2983 3.78966 19.5847C3.75945 19.8043 3.9304 20 4.15181 20H11.9164C12.1381 20 12.3087 19.804 12.2785 19.5847C12.2488 19.3682 12.0397 17.8479 12.012 17.6461C14.6832 16.4947 16.3353 14.3365 15.8467 12.3787C15.6655 11.6523 15.0846 11.3842 14.2638 11.3842Z"/><path fill="#000" d="M5.12567 5.51492C7.36063 5.87235 9.09344 3.50809 8.01159 1.47282C7.29245 0.119758 5.61252 -0.394055 4.25946 0.325127C2.9064 1.04431 2.39259 2.72424 3.11181 4.0773C3.52953 4.86314 4.284 5.38034 5.12567 5.51492Z"/></g><defs><clipPath id="clip0"><rect width="20" height="20" fill="#fff"/></clipPath></defs></svg>