<svg xmlns="http://www.w3.org/2000/svg" width="125" height="125" fill="none" viewBox="0 0 125 125"><path fill="#37bcf9" d="M75.4469 63.8568C75.4469 57.1013 69.9254 51.6043 63.139 51.6043C56.3534 51.6043 50.8321 57.1014 50.8321 63.8568C50.8321 70.614 56.3534 76.11 63.139 76.11C69.9254 76.11 75.4469 70.614 75.4469 63.8568ZM93.7319 0.0752563H31.2677C14.0581 0.0752563 0.0569992 14.0155 0.0569992 31.1499V39.8081H45.9836C50.8298 36.3711 56.7484 34.3408 63.139 34.3408C69.5295 34.3408 75.449 36.3711 80.2954 39.8081H124.942V31.1499C124.942 14.0154 110.941 0.0752563 93.7319 0.0752563ZM106.372 29.6296C106.372 31.5285 104.812 33.0824 102.904 33.0824H92.189C90.2814 33.0824 88.7211 31.5285 88.7211 29.6296V18.9606C88.7211 17.0619 90.2812 15.5079 92.189 15.5079H102.904C104.812 15.5079 106.372 17.0616 106.372 18.9606V29.6296ZM92.7859 63.8568C92.7859 80.1336 79.4856 93.3734 63.1389 93.3734C46.7916 93.3734 33.4926 80.1336 33.4926 63.8568C33.4926 59.3758 34.5064 55.1261 36.3091 51.317H0.0569992V93.8499C0.0569992 110.986 14.0581 124.925 31.2677 124.925H93.732C110.942 124.925 124.943 110.985 124.943 93.8499V51.317H89.9694C91.7721 55.1261 92.7859 59.3758 92.7859 63.8568Z"/></svg>