<svg xmlns="http://www.w3.org/2000/svg" width="38" height="39" fill="none" viewBox="0 0 38 39"><path fill="#CFD8DC" d="M0 35V11H38V35C38 37.2 36.2 39 34 39H4C1.8 39 0 37.2 0 35Z"/><path fill="#F44336" d="M38 7V13H0V7C0 4.8 1.8 3 4 3H34C36.2 3 38 4.8 38 7Z"/><path fill="#B71C1C" d="M28 10C29.6569 10 31 8.65685 31 7C31 5.34315 29.6569 4 28 4C26.3431 4 25 5.34315 25 7C25 8.65685 26.3431 10 28 10Z"/><path fill="#B71C1C" d="M10 10C11.6569 10 13 8.65685 13 7C13 5.34315 11.6569 4 10 4C8.34315 4 7 5.34315 7 7C7 8.65685 8.34315 10 10 10Z"/><path fill="#B0BEC5" d="M28 0C26.9 0 26 0.9 26 2V7C26 8.1 26.9 9 28 9C29.1 9 30 8.1 30 7V2C30 0.9 29.1 0 28 0Z"/><path fill="#B0BEC5" d="M10 0C8.9 0 8 0.9 8 2V7C8 8.1 8.9 9 10 9C11.1 9 12 8.1 12 7V2C12 0.9 11.1 0 10 0Z"/><path fill="#90A4AE" d="M8 17H12V21H8V17Z"/><path fill="#90A4AE" d="M14 17H18V21H14V17Z"/><path fill="#90A4AE" d="M20 17H24V21H20V17Z"/><path fill="#90A4AE" d="M26 17H30V21H26V17Z"/><path fill="#90A4AE" d="M8 23H12V27H8V23Z"/><path fill="#90A4AE" d="M14 23H18V27H14V23Z"/><path fill="#90A4AE" d="M20 23H24V27H20V23Z"/><path fill="#90A4AE" d="M26 23H30V27H26V23Z"/><path fill="#90A4AE" d="M8 29H12V33H8V29Z"/><path fill="#90A4AE" d="M14 29H18V33H14V29Z"/><path fill="#90A4AE" d="M20 29H24V33H20V29Z"/><path fill="#90A4AE" d="M26 29H30V33H26V29Z"/></svg>